<?xml version="1.0" standalone="no"?>
<!DOCTYPE svg PUBLIC "-//W3C//DTD SVG 20010904//EN"
 "http://www.w3.org/TR/2001/REC-SVG-20010904/DTD/svg10.dtd">
<svg version="1.0" xmlns="http://www.w3.org/2000/svg"
 width="339.000000pt" height="339.000000pt" viewBox="0 0 339.000000 339.000000"
 preserveAspectRatio="xMidYMid meet">
<metadata>
Created by potrace 1.14, written by Peter Selinger 2001-2017
</metadata>
<g transform="translate(0.000000,339.000000) scale(0.100000,-0.100000)"
fill="#000000" stroke="none">
<path d="M0 1695 l0 -1695 1695 0 1695 0 0 1695 0 1695 -1695 0 -1695 0 0
-1695z m660 355 l0 -100 123 0 c132 0 180 -13 224 -61 48 -52 53 -84 53 -319
l0 -220 -105 0 -104 0 0 198 1 197 -96 3 -96 3 0 -201 0 -200 -100 0 -99 0 -3
200 -3 200 103 0 102 0 0 100 0 100 -99 0 -100 0 -3 100 -3 100 103 0 102 0 0
-100z m800 0 l0 -100 100 0 100 0 0 -100 0 -100 -100 0 -100 0 0 -100 0 -100
100 0 100 0 0 -100 0 -100 -125 0 c-141 0 -174 9 -224 61 -54 58 -59 91 -60
432 l-2 307 106 0 105 0 0 -100z m600 -300 l0 -200 95 0 95 0 0 200 0 200 105
0 105 0 0 -200 0 -200 95 0 95 0 0 200 0 200 105 0 105 0 0 -200 0 -200 100 0
100 0 0 -100 0 -100 -105 0 -105 0 0 100 0 100 -95 0 -95 0 0 -100 0 -100
-324 0 c-356 0 -366 1 -424 62 -53 53 -62 104 -62 335 l0 203 105 0 105 0 0
-200z"/>
</g>
</svg>
